<svg width="256" height="256" viewBox="0 0 256 256" fill="none" xmlns="http://www.w3.org/2000/svg">
<rect width="256" height="256" rx="16" fill="url(#paint0_linear)"/>
<path d="M96.6 52.144C106.072 52.144 114.349 54.0213 121.432 57.776C128.515 61.5307 133.976 66.8213 137.816 73.648C141.741 80.3893 143.704 88.1973 143.704 97.072C143.704 105.861 141.741 113.669 137.816 120.496C133.976 127.323 128.472 132.613 121.304 136.368C114.221 140.123 105.987 142 96.6 142H62.936V52.144H96.6ZM95.192 123.056C103.469 123.056 109.912 120.795 114.52 116.272C119.128 111.749 121.432 105.349 121.432 97.072C121.432 88.7947 119.128 82.352 114.52 77.744C109.912 73.136 103.469 70.832 95.192 70.832H84.824V123.056H95.192ZM203.296 52.144V113.328C203.296 122.8 200.608 130.096 195.232 135.216C189.941 140.336 182.773 142.896 173.728 142.896C164.256 142.896 156.661 140.208 150.944 134.832C145.227 129.456 142.368 121.819 142.368 111.92H164.128C164.128 115.675 164.896 118.533 166.432 120.496C167.968 122.373 170.187 123.312 173.088 123.312C175.733 123.312 177.781 122.459 179.232 120.752C180.683 119.045 181.408 116.571 181.408 113.328V52.144H203.296ZM118.872 212.128H85.336L79.96 228H57.048L89.56 138.144H114.904L147.416 228H124.248L118.872 212.128ZM113.24 195.232L102.104 162.336L91.096 195.232H113.24ZM144.639 182.944C144.639 174.069 146.559 166.176 150.399 159.264C154.239 152.267 159.572 146.848 166.399 143.008C173.311 139.083 181.119 137.12 189.823 137.12C200.49 137.12 209.62 139.936 217.215 145.568C224.81 151.2 229.887 158.88 232.447 168.608H208.383C206.591 164.853 204.031 161.995 200.703 160.032C197.46 158.069 193.748 157.088 189.567 157.088C182.826 157.088 177.364 159.435 173.183 164.128C169.002 168.821 166.911 175.093 166.911 182.944C166.911 190.795 169.002 197.067 173.183 201.76C177.364 206.453 182.826 208.8 189.567 208.8C193.748 208.8 197.46 207.819 200.703 205.856C204.031 203.893 206.591 201.035 208.383 197.28H232.447C229.887 207.008 224.81 214.688 217.215 220.32C209.62 225.867 200.49 228.64 189.823 228.64C181.119 228.64 173.311 226.72 166.399 222.88C159.572 218.955 154.239 213.536 150.399 206.624C146.559 199.712 144.639 191.819 144.639 182.944Z" fill="white"/>
<defs>
<linearGradient id="paint0_linear" x1="0" y1="256" x2="256" y2="0" gradientUnits="userSpaceOnUse">
<stop stop-color="#DB2777"/>
<stop offset="0.515625" stop-color="#DC2626"/>
<stop offset="1" stop-color="#D97706"/>
</linearGradient>
</defs>
</svg>
